<svg width="64" height="20" viewBox="0 0 64 20" fill="none" xmlns="http://www.w3.org/2000/svg">
<path d="M62.14 12.92L62.93 11.15H58.72C58.3982 11.1139 58.0723 11.1418 57.7613 11.2319C57.4502 11.322 57.16 11.4726 56.9073 11.6752C56.6545 11.8777 56.4443 12.1281 56.2886 12.4121C56.1329 12.6961 56.0349 13.008 56 13.33C55.9901 13.4298 55.9901 13.5303 56 13.6301C55.9616 14.2175 56.1581 14.7961 56.5463 15.2387C56.9345 15.6813 57.4825 15.9515 58.07 15.9901C58.1998 16 58.3302 16 58.46 15.9901H60.33C60.502 15.9761 60.6726 16.03 60.8053 16.1403C60.938 16.2505 61.0223 16.4084 61.04 16.58V16.64C61.0413 16.7249 61.0257 16.8093 60.9942 16.8881C60.9626 16.9669 60.9157 17.0386 60.8561 17.0991C60.7965 17.1596 60.7256 17.2076 60.6472 17.2404C60.5689 17.2732 60.4849 17.29 60.4 17.29H56.24V19.0601H60.31C60.9621 19.1273 61.6143 18.9336 62.124 18.5214C62.6337 18.1091 62.9594 17.5118 63.03 16.86C63.0925 16.2475 62.9211 15.6339 62.5502 15.1425C62.1793 14.651 61.6362 14.3179 61.03 14.21C60.8871 14.1951 60.743 14.1951 60.6 14.21H58.72C58.6346 14.2183 58.5484 14.2096 58.4663 14.1843C58.3843 14.1591 58.3081 14.1178 58.2421 14.063C58.1761 14.0081 58.1216 13.9408 58.0818 13.8647C58.0419 13.7887 58.0175 13.7056 58.01 13.6201C58.0053 13.6003 58.0053 13.5798 58.01 13.5601C58.01 13.3894 58.0771 13.2256 58.1968 13.1039C58.3166 12.9823 58.4793 12.9127 58.65 12.91H62.13L62.14 12.92ZM50.8 13.5701C50.7987 13.4852 50.8142 13.4009 50.8458 13.3221C50.8774 13.2433 50.9243 13.1715 50.9839 13.111C51.0434 13.0505 51.1145 13.0025 51.1928 12.9697C51.2711 12.9369 51.3551 12.92 51.44 12.92H54.91L55.7 11.15H51.54C51.2182 11.1139 50.8923 11.1418 50.5813 11.2319C50.2702 11.322 49.98 11.4726 49.7273 11.6752C49.4745 11.8777 49.2643 12.1281 49.1086 12.4121C48.9529 12.6961 48.8548 13.008 48.82 13.33C48.81 13.4298 48.81 13.5303 48.82 13.6301C48.801 13.9217 48.8398 14.2142 48.9342 14.4908C49.0285 14.7675 49.1766 15.0228 49.3698 15.2421C49.5631 15.4613 49.7978 15.6403 50.0603 15.7686C50.3229 15.897 50.6083 15.9722 50.9 15.9901C51.0265 16.0001 51.1535 16.0001 51.28 15.9901H53.15C53.2354 15.9818 53.3216 15.9906 53.4037 16.0158C53.4857 16.041 53.562 16.0822 53.628 16.1371C53.694 16.1919 53.7484 16.2594 53.7882 16.3354C53.8281 16.4114 53.8525 16.4945 53.86 16.58V16.64C53.8627 16.7244 53.8484 16.8085 53.8179 16.8873C53.7874 16.966 53.7415 17.0379 53.6827 17.0985C53.6239 17.1591 53.5536 17.2073 53.4758 17.2402C53.398 17.2731 53.3145 17.2901 53.23 17.29H49.06V19.0601H53.13C53.7821 19.1273 54.4343 18.9336 54.944 18.5214C55.4537 18.1091 55.7794 17.5118 55.85 16.86C55.85 16.74 55.85 16.6201 55.85 16.5001C55.8831 15.9324 55.6921 15.3745 55.3181 14.9462C54.9441 14.518 54.4169 14.2536 53.85 14.21C53.7071 14.1951 53.563 14.1951 53.42 14.21H51.55C51.4646 14.2183 51.3784 14.2096 51.2964 14.1843C51.2143 14.1591 51.1381 14.1178 51.0721 14.063C51.006 14.0081 50.9515 13.9408 50.9117 13.8647C50.8719 13.7887 50.8475 13.7056 50.84 13.6201V13.5601L50.8 13.5701ZM41.72 19.0701H48.15V17.29H43.72V15.92H48.06V14.2001H43.72V12.92H48.15V11.15H41.72V19.05V19.0701ZM41.4 19.0701L38.84 16.1901C39.4245 16.0963 39.9556 15.7949 40.3358 15.3412C40.716 14.8875 40.9199 14.3119 40.91 13.72C40.9289 13.0613 40.6858 12.4219 40.234 11.942C39.7823 11.4622 39.1587 11.1809 38.5 11.16H33.79V19.0601H35.79V16.2601H36.56L38.93 19.0601L41.4 19.0701ZM37.97 14.5601H35.79V12.92H37.97C38.1868 12.8972 38.404 12.9596 38.5757 13.0939C38.7473 13.2283 38.86 13.4241 38.89 13.64C38.89 13.64 38.89 13.7001 38.89 13.7401C38.89 14.1901 38.57 14.54 37.96 14.54L37.97 14.5601ZM32.96 13.8101C32.9954 13.1405 32.7636 12.4842 32.3155 11.9855C31.8673 11.4867 31.2395 11.1862 30.57 11.15H25.72V19.05H27.72V16.47H30.09C30.4306 16.4987 30.7735 16.4594 31.0988 16.3544C31.4241 16.2494 31.7253 16.0809 31.9848 15.8585C32.2444 15.6362 32.4572 15.3644 32.6109 15.0591C32.7645 14.7538 32.856 14.421 32.88 14.08C32.885 13.9901 32.885 13.9 32.88 13.8101H32.96ZM30.96 13.8101C30.9654 13.9217 30.9487 14.0333 30.9109 14.1385C30.873 14.2437 30.8148 14.3404 30.7396 14.423C30.6644 14.5057 30.5736 14.5728 30.4724 14.6203C30.3712 14.6678 30.2617 14.6949 30.15 14.7001H27.72V12.92H29.95C30.1776 12.9034 30.4028 12.9768 30.5768 13.1246C30.7507 13.2724 30.8596 13.4827 30.88 13.71V13.8201L30.96 13.8101ZM25.62 19.04L22.45 15.04L25.6 11.1201H23.15L21.29 13.55L19.43 11.1201H16.92L20.08 15.1201L16.93 19.0601H19.38L21.24 16.61L23.11 19.0601L25.62 19.04ZM10.33 19.04H16.72V17.2601H12.29V15.92H16.61V14.2001H12.29V12.92H16.72V11.15H10.29L10.33 19.04Z" fill="white"/>
<path d="M61.89 8.50007V0.610054H59.89V5.50007L56.72 0.610054H54.18V8.50007H56.18V3.42005L59.43 8.50007H61.89ZM51.74 8.50007H54.01L50.63 0.610054H48.03L44.65 8.50007H46.86L47.5 6.89002H51.09L51.75 8.50007H51.74ZM50.39 5.17005H48.2L49.29 2.47004L50.39 5.17005ZM43.93 2.43006H46.05V0.610054H43.78C43.3101 0.576081 42.8383 0.63542 42.3914 0.784675C41.9446 0.933931 41.5318 1.17014 41.1767 1.47968C40.8216 1.78923 40.5312 2.166 40.3224 2.58826C40.1136 3.01053 39.9904 3.46998 39.96 3.94007C39.945 4.12644 39.945 4.3137 39.96 4.50007V4.61005C39.96 7.03005 41.36 8.50007 43.63 8.50007H43.79L44.61 6.73005H43.96C43.4634 6.7603 42.9749 6.59355 42.6005 6.26594C42.2261 5.93832 41.9959 5.47627 41.96 4.98005C41.95 4.85692 41.95 4.73319 41.96 4.61005V4.50007C41.9336 4.25579 41.9557 4.00871 42.0249 3.77296C42.094 3.5372 42.209 3.31735 42.3631 3.12604C42.5173 2.93474 42.7076 2.77568 42.9233 2.65797C43.139 2.54026 43.3757 2.46624 43.62 2.44007L43.93 2.43006ZM36.99 8.50007H38.99V0.610054H36.99V8.50007ZM36.67 8.50007L34.11 5.62006C34.6954 5.52828 35.2276 5.22747 35.6082 4.77332C35.9888 4.31918 36.192 3.74245 36.18 3.15003C36.1989 2.49125 35.9558 1.85188 35.5041 1.37202C35.0523 0.892152 34.4287 0.610939 33.77 0.590034C33.6602 0.580096 33.5497 0.580096 33.44 0.590034H29.06V8.48005H31.06V5.68006H31.83L34.2 8.48005L36.67 8.50007ZM33.24 3.99006H31.06V2.38007H33.24C33.3471 2.36605 33.4558 2.37331 33.5601 2.40144C33.6643 2.42956 33.762 2.47798 33.8475 2.54395C33.933 2.60992 34.0046 2.69212 34.0582 2.78584C34.1118 2.87955 34.1464 2.98291 34.16 3.09003C34.16 3.09003 34.16 3.15007 34.16 3.19007C34.16 3.64007 33.84 3.99006 33.23 3.99006H33.24ZM21.49 8.50007H27.92V6.73005H23.49V5.39002H27.81V3.66004H23.49V2.38007H27.92V0.610054H21.49V8.50007ZM18.17 8.50007H20.17V0.610054H17.02L15.26 5.61005L13.49 0.610054H10.31V8.50007H12.31V2.66004L14.39 8.50007H16.14L18.21 2.66004V8.50007H18.17ZM7.81998 8.50007H10.08L6.69998 0.600044H4.10001L0.720001 8.50007H2.93002L3.56998 6.89002H7.16L7.81998 8.50007ZM6.45999 5.17005H4.26999L5.37003 2.46003L6.45999 5.17005Z" fill="white"/>
</svg>
