<svg width="52" height="41" viewBox="0 0 52 41" fill="none" xmlns="http://www.w3.org/2000/svg">
<path d="M9.54007 40.0501V37.4201C9.56752 37.0078 9.43027 36.6014 9.15842 36.2902C8.88657 35.979 8.50232 35.7883 8.09006 35.7601H7.89008C7.60114 35.7398 7.31209 35.7978 7.05338 35.9281C6.79466 36.0583 6.57588 36.2559 6.42007 36.5001C6.27885 36.2631 6.07578 36.0691 5.83267 35.9387C5.58957 35.8083 5.31559 35.7466 5.04007 35.7601C4.79871 35.7467 4.55803 35.7969 4.34216 35.9057C4.1263 36.0145 3.94282 36.1781 3.81006 36.3801V35.8601H2.90006V40.0501H3.82007V37.7301C3.78822 37.4737 3.85684 37.2149 4.01157 37.008C4.16629 36.8011 4.39511 36.6621 4.65005 36.6201H4.84006C5.45006 36.6201 5.75006 37.0101 5.75006 37.7201V40.0401H6.72006V37.7201C6.69162 37.4608 6.76564 37.2007 6.9263 36.9952C7.08696 36.7897 7.32155 36.6551 7.58005 36.6201H7.72006C8.34006 36.6201 8.63007 37.0201 8.63007 37.7201V40.0501H9.54007ZM23.1401 35.8601H21.6501V34.5901H20.7201V35.8601H19.8701V36.6901H20.7201V38.6001C20.7201 39.6001 21.1001 40.1501 22.1801 40.1501C22.5821 40.1491 22.9762 40.0384 23.3201 39.8301L23.05 39.0501C22.8068 39.1939 22.5323 39.2762 22.2501 39.2901C21.8001 39.2901 21.6501 39.0101 21.6501 38.5901V36.6901H23.1401V35.8601ZM30.9101 35.7601C30.6886 35.7523 30.4692 35.8049 30.2754 35.9124C30.0816 36.0199 29.9207 36.1781 29.8101 36.3701V35.8601H28.9101V40.0501H29.8201V37.7001C29.8201 37.0101 30.1201 36.6201 30.7101 36.6201C30.9053 36.6208 31.0986 36.6581 31.2801 36.7301L31.5601 35.8701C31.3541 35.7988 31.138 35.7617 30.9201 35.7601H30.9101ZM19.1601 36.2001C18.6483 35.8911 18.0575 35.7381 17.4601 35.7601C16.4001 35.7601 15.7201 36.2701 15.7201 37.1001C15.7201 37.9301 16.2201 38.2001 17.1601 38.3301L17.5901 38.3901C18.0901 38.4601 18.3201 38.5901 18.3201 38.8301C18.3201 39.0701 17.9901 39.3401 17.3201 39.3401C16.8206 39.3525 16.3314 39.1976 15.9301 38.9001L15.5001 39.6101C16.0295 39.9803 16.6643 40.1696 17.3101 40.1501C18.5201 40.1501 19.2201 39.5801 19.2201 38.7901C19.2201 38.0001 18.6701 37.6701 17.7601 37.5401L17.33 37.4701C16.93 37.4701 16.6201 37.3401 16.6201 37.0601C16.6201 36.7801 16.9201 36.5701 17.4201 36.5701C17.8767 36.5795 18.3237 36.7032 18.7201 36.9301L19.1601 36.2001ZM43.5601 35.7601C43.3386 35.7523 43.1192 35.8049 42.9254 35.9124C42.7316 36.0199 42.5707 36.1781 42.4601 36.3701V35.8601H41.5601V40.0501H42.4701V37.7001C42.4701 37.0101 42.7701 36.6201 43.3601 36.6201C43.5552 36.6217 43.7484 36.659 43.9301 36.7301L44.2101 35.8701C44.0007 35.7988 43.7812 35.7616 43.5601 35.7601V35.7601ZM31.8201 37.9201C31.8008 38.4752 31.9991 39.0158 32.3727 39.4268C32.7463 39.8378 33.2657 40.0865 33.8201 40.1201H34.0301C34.5751 40.148 35.1107 39.9695 35.5301 39.6201L35.1001 38.8801C34.7838 39.1218 34.3981 39.2551 34.0001 39.2601C33.6676 39.2628 33.3475 39.1339 33.1096 38.9017C32.8718 38.6694 32.7353 38.3525 32.7301 38.0201C32.7251 37.9869 32.7251 37.9532 32.7301 37.9201C32.7052 37.59 32.8124 37.2635 33.028 37.0123C33.2436 36.7611 33.55 36.6056 33.8801 36.5801H33.9901C34.388 36.5851 34.7738 36.7184 35.0901 36.9601L35.5201 36.2201C35.1007 35.8707 34.5651 35.6922 34.0201 35.7201C33.7421 35.7039 33.4636 35.7429 33.2008 35.8348C32.9379 35.9267 32.6959 36.0698 32.4886 36.2557C32.2813 36.4416 32.1128 36.6667 31.993 36.9181C31.8731 37.1694 31.8041 37.442 31.7901 37.7201C31.7851 37.79 31.7851 37.8602 31.7901 37.9301L31.8201 37.9201ZM40.3501 37.9201V35.9201H39.4401V36.4201C39.2839 36.2214 39.0828 36.0625 38.8534 35.9565C38.6239 35.8504 38.3726 35.8003 38.1201 35.8101C37.8439 35.8101 37.5705 35.8648 37.3156 35.9711C37.0607 36.0773 36.8294 36.2331 36.6351 36.4293C36.4408 36.6255 36.2872 36.8582 36.1834 37.1141C36.0795 37.37 36.0274 37.6439 36.0301 37.9201V37.9201C36.0166 38.1959 36.0577 38.4717 36.151 38.7317C36.2443 38.9916 36.3879 39.2306 36.5737 39.435C36.7595 39.6393 36.9837 39.805 37.2336 39.9226C37.4835 40.0402 37.7542 40.1073 38.0301 40.1201H38.1201C38.3726 40.1299 38.6239 40.0797 38.8534 39.9737C39.0828 39.8676 39.2839 39.7088 39.4401 39.5101V40.0201H40.3501V37.9201ZM36.9601 37.9201C36.9407 37.588 37.0525 37.2616 37.2713 37.011C37.4901 36.7605 37.7984 36.6057 38.1301 36.5801H38.2301C38.5625 36.5774 38.8826 36.7062 39.1205 36.9385C39.3583 37.1708 39.4948 37.4877 39.5001 37.8201C39.505 37.8533 39.505 37.8869 39.5001 37.9201C39.5123 38.0838 39.4919 38.2483 39.44 38.4041C39.3882 38.5599 39.3059 38.7038 39.198 38.8275C39.0901 38.9512 38.9587 39.0523 38.8114 39.1249C38.6641 39.1974 38.5039 39.24 38.3401 39.2501H38.2401C37.9076 39.2528 37.5876 39.1239 37.3497 38.8916C37.1118 38.6594 36.9753 38.3425 36.9701 38.0101V37.9201H36.9601ZM25.9701 35.7201C25.6999 35.7079 25.4302 35.7506 25.177 35.8457C24.9239 35.9407 24.6927 36.0861 24.4973 36.2731C24.302 36.46 24.1465 36.6846 24.0404 36.9333C23.9343 37.182 23.8798 37.4497 23.8801 37.7201V37.9201C23.8624 38.1907 23.8984 38.4622 23.986 38.7189C24.0735 38.9755 24.2109 39.2125 24.3902 39.4159C24.5695 39.6194 24.7873 39.7855 25.0309 39.9046C25.2746 40.0237 25.5394 40.0935 25.8101 40.1101H26.0301C26.6559 40.1278 27.2669 39.9181 27.7501 39.5201L27.3 38.8501C26.9522 39.1246 26.5231 39.2758 26.08 39.2801C25.7831 39.3059 25.4876 39.2164 25.2549 39.0303C25.0222 38.8441 24.87 38.5754 24.83 38.2801H27.9401C27.9401 38.1701 27.9401 38.0501 27.9401 37.9301C27.9663 37.668 27.9405 37.4033 27.8641 37.1512C27.7877 36.8991 27.6623 36.6646 27.4951 36.4611C27.3278 36.2576 27.122 36.0892 26.8895 35.9654C26.657 35.8417 26.4023 35.7651 26.1401 35.7401L25.9701 35.7201ZM25.9701 36.5301C26.1063 36.5219 26.2428 36.5417 26.3712 36.5883C26.4995 36.6349 26.617 36.7072 26.7163 36.8009C26.8156 36.8946 26.8947 37.0076 26.9486 37.133C27.0026 37.2584 27.0303 37.3935 27.0301 37.5301H24.8601C24.8781 37.2515 25.0043 36.9911 25.2116 36.8043C25.419 36.6175 25.6912 36.5191 25.9701 36.5301V36.5301ZM48.8 37.9201V34.1501H47.8901V36.3401C47.7361 36.1388 47.5355 35.9782 47.3055 35.8719C47.0755 35.7656 46.8231 35.7169 46.5701 35.7301C46.0131 35.7301 45.479 35.9513 45.0851 36.3451C44.6913 36.739 44.4701 37.2731 44.4701 37.8301C44.4651 37.8632 44.4651 37.8969 44.4701 37.9301C44.4566 38.2054 44.4978 38.4807 44.5912 38.7401C44.6846 38.9995 44.8284 39.2378 45.0143 39.4413C45.2002 39.6449 45.4245 39.8096 45.6744 39.9261C45.9242 40.0426 46.1946 40.1086 46.4701 40.1201H46.5701C46.8235 40.1287 47.0753 40.077 47.3048 39.9692C47.5343 39.8614 47.7349 39.7006 47.8901 39.5001V40.0101H48.8V37.9201ZM45.4101 37.9201C45.3908 37.589 45.5029 37.2638 45.7219 37.0148C45.9409 36.7658 46.2493 36.6132 46.58 36.5901H46.6801C47.0125 36.5874 47.3326 36.7163 47.5705 36.9485C47.8084 37.1808 47.9448 37.4976 47.9501 37.8301C47.9501 37.8301 47.9501 37.8901 47.9501 37.9201C47.9623 38.0843 47.942 38.2494 47.8903 38.4057C47.8385 38.5621 47.7564 38.7067 47.6486 38.8312C47.5408 38.9557 47.4095 39.0577 47.2621 39.1313C47.1148 39.2049 46.9544 39.2487 46.7901 39.2601H46.7201C46.5559 39.2628 46.3928 39.233 46.2402 39.1726C46.0875 39.1123 45.9482 39.0224 45.8303 38.9082C45.7123 38.794 45.6181 38.6576 45.5528 38.5069C45.4876 38.3563 45.4527 38.1942 45.4501 38.0301V37.9201H45.4101ZM14.7201 37.9201V35.8301H13.7201V36.3401C13.5634 36.1393 13.3608 35.9792 13.1294 35.873C12.8979 35.7669 12.6444 35.7178 12.3901 35.7301C12.1144 35.7287 11.8412 35.7822 11.5864 35.8874C11.3315 35.9926 11.1001 36.1474 10.9057 36.3428C10.7112 36.5382 10.5575 36.7703 10.4536 37.0256C10.3496 37.2809 10.2974 37.5544 10.3 37.8301V37.9301C10.2756 38.4865 10.4721 39.0301 10.8467 39.4422C11.2214 39.8543 11.7438 40.1016 12.3 40.1301H12.3901C12.6451 40.1404 12.899 40.0894 13.1303 39.9815C13.3617 39.8737 13.5639 39.7121 13.7201 39.5101V40.0201H14.7201V37.9201ZM11.33 37.9201C11.3178 37.7564 11.3382 37.5918 11.3901 37.4361C11.4419 37.2803 11.5242 37.1364 11.6321 37.0127C11.74 36.889 11.8714 36.7879 12.0187 36.7153C12.166 36.6428 12.3262 36.6002 12.4901 36.5901H12.6001C12.7646 36.5874 12.928 36.6176 13.0807 36.6787C13.2335 36.7398 13.3726 36.8307 13.4898 36.9461C13.6071 37.0616 13.7002 37.1991 13.7638 37.3509C13.8274 37.5026 13.8601 37.6655 13.8601 37.8301V37.9201C13.882 38.2528 13.7712 38.5807 13.5519 38.8318C13.3326 39.083 13.0227 39.237 12.6901 39.2601H12.6001C12.4351 39.2628 12.2712 39.2327 12.1179 39.1717C11.9645 39.1107 11.8248 39.0199 11.7068 38.9046C11.5887 38.7894 11.4946 38.6519 11.43 38.5C11.3653 38.3482 11.3313 38.1851 11.33 38.0201V37.9201V37.9201ZM24.4101 29.1401L24.7901 29.4601C22.4157 31.0372 19.6579 31.9409 16.8106 32.0749C13.9633 32.2088 11.1329 31.568 8.62094 30.2207C6.10896 28.8734 4.00942 26.87 2.5459 24.4239C1.08238 21.9778 0.309661 19.1805 0.310059 16.3301C0.310059 12.1502 1.97048 8.14165 4.92606 5.18608C7.88163 2.2305 11.8903 0.57008 16.0701 0.57008C19.1741 0.566406 22.2093 1.48532 24.7901 3.2101C24.6601 3.3101 24.5301 3.41009 24.4101 3.52009C22.5811 5.11578 21.115 7.08465 20.1104 9.29423C19.1059 11.5038 18.5861 13.9028 18.5861 16.3301C18.5861 18.7573 19.1059 21.1564 20.1104 23.3659C21.115 25.5755 22.5811 27.5444 24.4101 29.1401ZM35.55 0.57008C32.4428 0.566231 29.4045 1.48507 26.8201 3.2101C26.9501 3.3101 27.0801 3.41009 27.2001 3.52009C29.0291 5.11578 30.4951 7.08465 31.4997 9.29423C32.5043 11.5038 33.024 13.9028 33.024 16.3301C33.024 18.7573 32.5043 21.1564 31.4997 23.3659C30.4951 25.5755 29.0291 27.5444 27.2001 29.1401L26.8201 29.4601C29.1953 31.0364 31.9534 31.9394 34.801 32.073C37.6486 32.2066 40.4792 31.5658 42.9916 30.2188C45.504 28.8718 47.6043 26.8689 49.0691 24.4233C50.5338 21.9777 51.3083 19.1808 51.3101 16.3301V16.3301C51.3074 12.1511 49.6461 8.14401 46.6911 5.18901C43.7361 2.23401 39.729 0.57273 35.55 0.57008V0.57008ZM25.7201 3.98008L25.1201 4.47007C23.4152 5.9467 22.0479 7.77271 21.1108 9.8242C20.1736 11.8757 19.6887 14.1047 19.6887 16.3601C19.6887 18.6155 20.1736 20.8445 21.1108 22.896C22.0479 24.9475 23.4152 26.7735 25.1201 28.2501C25.3101 28.4201 25.5101 28.5901 25.7201 28.7501L26.3201 28.2501C28.0219 26.7716 29.3866 24.945 30.3218 22.8938C31.257 20.8425 31.741 18.6145 31.741 16.3601C31.741 14.1057 31.257 11.8776 30.3218 9.82634C29.3866 7.77509 28.0219 5.94853 26.3201 4.47007L25.7201 3.98008" fill="white"/>
</svg>
