<svg width="51" height="18" viewBox="0 0 51 18" fill="none" xmlns="http://www.w3.org/2000/svg">
<path d="M26.44 5.92004C26.44 8.20004 28.44 9.47003 30.03 10.22C31.62 10.97 32.15 11.49 32.15 12.22C32.15 13.28 30.88 13.7501 29.7 13.7601C28.2369 13.797 26.7895 13.4523 25.5001 12.7601L24.76 16.23C26.2105 16.793 27.7541 17.078 29.3101 17.0701C33.6101 17.0701 36.4101 14.95 36.4301 11.66C36.4301 7.49003 30.66 7.26001 30.7 5.39001C30.7 4.82001 31.2501 4.22007 32.4301 4.07007C33.802 3.94128 35.1834 4.18297 36.4301 4.77002L37.14 1.42004C35.9178 0.963837 34.6246 0.726859 33.32 0.720032C29.32 0.720032 26.43 2.87007 26.4 5.95007L26.44 5.92004ZM44.09 0.920044C43.718 0.9207 43.3545 1.03114 43.045 1.23749C42.7355 1.44384 42.4937 1.73689 42.35 2.08002L36.22 16.7401H40.51L41.36 14.3701H46.61L47.11 16.7401H50.89L47.59 0.920044H44.1H44.09ZM44.7 5.19006L45.94 11.1301H42.55L44.7 5.19006ZM21.2501 0.920044L17.86 16.7401H21.95L25.34 0.920044H21.2501ZM15.19 0.920044L10.94 11.6901L9.21002 2.53003C9.14072 2.08131 8.91304 1.67223 8.56818 1.37689C8.22331 1.08156 7.78406 0.919503 7.33002 0.920044H0.330017L0.230042 1.38007C1.61451 1.66131 2.9583 2.11482 4.23004 2.73004C4.50481 2.85253 4.74216 3.04572 4.91785 3.28992C5.09353 3.53412 5.20125 3.82061 5.23004 4.12006L8.50006 16.7401H12.82L19.4901 0.920044H15.19Z" fill="white"/>
</svg>
