<svg viewBox="0 0 118 43" xmlns="http://www.w3.org/2000/svg">
<path d="M10.0025 39.6446C10.6192 38.7939 11.2938 38.1559 12.0261 37.7308C12.797 37.3056 13.5679 36.9576 14.3389 36.6871C15.1483 36.4161 15.9385 36.165 16.7094 35.9332C17.5188 35.6623 18.309 35.2372 19.0799 34.6574C19.5039 34.4252 20.1014 34.0776 20.8723 33.6132C21.6432 33.1497 22.3948 32.6471 23.1272 32.1056C23.8981 31.5258 24.5534 30.9654 25.093 30.424C25.6712 29.8829 25.9602 29.419 25.9602 29.0322C25.9602 28.9935 25.941 28.9741 25.9024 28.9741C25.8253 28.9741 25.7868 28.9551 25.7868 28.9163L25.6712 28.8005C25.4785 28.7229 25.1701 28.6264 24.7461 28.5106C24.3221 28.3943 24.0715 28.3172 23.9945 28.2784C19.0221 27.6986 15.0134 27.1959 11.9683 26.7708C8.96179 26.3069 6.62979 25.8236 4.97236 25.3209C3.35344 24.8184 2.27417 24.2384 1.73454 23.5812C1.1949 22.924 0.925087 22.0928 0.925087 21.0877C0.925087 20.7011 1.00218 20.2758 1.15636 19.8119C1.31054 19.348 1.484 18.8841 1.67672 18.4202C1.90799 17.9563 2.13926 17.531 2.37053 17.1444C2.60181 16.7578 2.81381 16.4485 3.00653 16.2165C3.62326 15.4433 4.43269 14.7475 5.43491 14.1289C6.43704 13.5104 7.51631 12.9691 8.67271 12.5052C9.82903 12.0413 10.9854 11.6353 12.1417 11.2874C13.3367 10.9395 14.4159 10.6302 15.3796 10.3596C16.4588 10.2823 17.5381 10.031 18.6174 9.60574C19.7352 9.14182 20.8337 8.8325 21.913 8.67791C22.4526 8.67791 22.8959 8.89052 23.2428 9.31576C23.5897 9.74104 23.7632 10.1856 23.7632 10.6495C23.7632 11.3068 23.6283 11.8093 23.3584 12.1572C23.1272 12.4665 22.7995 12.7178 22.3756 12.9111C21.9901 13.0658 21.5468 13.2011 21.0457 13.3171C20.5447 13.3944 20.0436 13.491 19.5424 13.607C19.2341 13.6843 18.8101 13.8003 18.2705 13.9549C17.7308 14.0709 17.1912 14.2062 16.6516 14.3609C16.1119 14.5155 15.6301 14.6508 15.2061 14.7668C14.7821 14.8828 14.5316 14.9601 14.4545 14.9988C13.2596 15.5013 12.1225 15.9846 11.0432 16.4485C10.0025 16.8738 9.07741 17.3184 8.26798 17.7823C7.49707 18.2462 6.88035 18.7488 6.4178 19.29C5.99378 19.7926 5.80108 20.3531 5.8396 20.9717V21.0297C6.22505 21.5709 7.09233 21.9769 8.4414 22.2475C9.79051 22.5181 11.3708 22.7501 13.1825 22.9433C15.0327 23.1366 16.9599 23.3299 18.9643 23.5233C21.0072 23.7165 22.8766 24.0065 24.5726 24.3931C26.2686 24.7797 27.6755 25.3015 28.7933 25.9588C29.9111 26.6161 30.4893 27.5052 30.5279 28.6264C30.5279 29.0516 30.4315 29.5543 30.2388 30.1341C30.0846 30.7139 29.8533 31.1584 29.545 31.4677C28.5813 32.5502 27.425 33.6714 26.0759 34.8314C24.7654 35.991 23.3392 37.0735 21.7974 38.0788C20.2555 39.045 18.6559 39.8763 16.9985 40.5724C15.3796 41.2293 13.7799 41.6161 12.1996 41.732C11.66 41.732 11.1589 41.5386 10.6963 41.1522C10.2338 40.7266 10.0025 40.2244 10.0025 39.6446ZM33.9391 22.8273C33.8621 21.8222 33.7657 20.817 33.6501 19.8119C33.5729 18.7681 33.438 17.7436 33.2453 16.7384C33.2453 15.8879 33.5151 15.3467 34.0548 15.1147C34.633 14.8828 35.2497 14.7668 35.9049 14.7668H37.0613C37.6395 15.0374 38.0442 15.366 38.2755 15.7526C38.5067 16.1392 38.6609 16.5645 38.738 17.0284C38.8151 17.4923 38.8344 17.9756 38.7958 18.4782C38.7958 18.9807 38.8151 19.464 38.8537 19.9279C38.8922 20.1212 38.9115 20.4498 38.9115 20.9137C38.9115 21.3776 38.9115 21.8609 38.9115 22.3634C38.95 22.866 38.9886 23.3299 39.0271 23.7552C39.1042 24.1805 39.2006 24.4511 39.3162 24.5671L44.4042 14.9988C44.6353 14.5735 44.9629 14.2256 45.3872 13.9549C45.8498 13.6457 46.3506 13.5297 46.8904 13.607C47.7382 13.6843 48.3742 13.8583 48.7986 14.1289C49.2225 14.3609 49.5115 14.6895 49.6657 15.1147C49.8585 15.5013 49.9547 15.9846 49.9547 16.5645C49.9934 17.1444 50.032 17.7823 50.0702 18.4782C50.0702 18.7101 50.0896 19.1547 50.1282 19.8119C50.1669 20.4305 50.2051 21.0877 50.2437 21.7836C50.321 22.4794 50.3786 23.1366 50.4172 23.7552C50.4941 24.3737 50.5521 24.799 50.5908 25.031H50.8218C50.8991 24.7604 51.034 24.2384 51.2268 23.4652C51.4579 22.692 51.7087 21.8802 51.9784 21.0297C52.2481 20.1792 52.4989 19.3673 52.73 18.5941C52.961 17.8209 53.1345 17.2797 53.2505 16.9704C53.2887 16.8931 53.366 16.7384 53.4815 16.5065C53.5971 16.2359 53.713 15.9652 53.8286 15.6946C53.9441 15.3854 54.0596 15.1147 54.1756 14.8828C54.2911 14.6122 54.368 14.4189 54.4066 14.3029C54.6763 13.8776 54.9465 13.665 55.2162 13.665C55.5245 13.6264 55.8522 13.607 56.1992 13.607C57.1626 13.607 57.8948 13.8583 58.396 14.3609C58.9359 14.8248 59.3211 15.424 59.5526 16.1586C59.8223 16.8931 60.0151 17.705 60.1307 18.5941C60.2462 19.4446 60.3811 20.2372 60.5352 20.9717C60.5739 20.9717 60.5932 21.0104 60.5932 21.0877C60.5932 21.1263 60.5739 21.165 60.5352 21.2037L63.7155 38.0788C63.8697 38.2335 63.9465 38.3687 63.9465 38.4846C63.9852 38.6005 64.0045 38.7551 64.0045 38.9485C64.0045 39.3737 63.7924 39.7988 63.3685 40.2244C62.9832 40.6108 62.5782 40.8042 62.1543 40.8042C61.5763 40.8042 60.9016 40.5914 60.1307 40.1662C59.3984 39.7411 58.9745 39.1996 58.8586 38.5427L56.1992 24.799L55.9098 24.3351C55.8329 24.5284 55.6594 25.089 55.3897 26.017C55.1582 26.906 54.8692 28.0462 54.5222 29.4384C54.1756 30.7914 53.7706 32.3184 53.308 34.0194C52.8841 35.7205 52.4409 37.4603 51.9784 39.2384C51.9011 39.5864 51.67 39.857 51.2844 40.0504C50.9378 40.205 50.6294 40.2821 50.3593 40.2821C49.5501 40.2821 48.8948 40.1856 48.3936 39.9922C47.8924 39.7988 47.5071 39.5089 47.2374 39.1225C46.9673 38.7357 46.7749 38.2718 46.6589 37.7308C46.5434 37.1893 46.4472 36.5708 46.3699 35.8751C46.3699 35.7205 46.3317 35.179 46.2544 34.2512C46.1771 33.285 46.0808 32.2025 45.9653 31.0038C45.888 29.7666 45.7918 28.5295 45.6763 27.2924C45.5603 26.0553 45.4834 25.0697 45.4448 24.3351C45.4448 24.1805 45.4448 24.0645 45.4448 23.9872C45.4448 23.9098 45.4448 23.8518 45.4448 23.8132C45.4448 23.7359 45.4255 23.6586 45.3872 23.5812C45.3486 23.4652 45.2713 23.2913 45.1558 23.0593L43.4791 27.0607L40.8194 36.8611L40.2413 40.4561C40.2027 40.6883 40.0871 40.9007 39.8944 41.0941C39.7402 41.2487 39.5475 41.384 39.3162 41.5003C39.0849 41.5774 38.8537 41.6355 38.6224 41.6739C38.3911 41.7126 38.1984 41.732 38.0442 41.732C37.1962 41.732 36.4639 41.4227 35.8471 40.8042C35.2689 40.1856 34.9606 39.5089 34.922 38.7745C34.8835 38.504 34.8449 37.9819 34.8064 37.2087C34.7679 36.3968 34.71 35.4499 34.633 34.3675C34.5559 33.285 34.4788 32.1444 34.4017 30.946C34.3631 29.7477 34.3053 28.6071 34.2282 27.5246C34.1511 26.4421 34.074 25.4949 33.997 24.683C33.9584 23.8712 33.9391 23.3299 33.9391 23.0593V22.8273ZM69.3815 39.5283C68.9959 35.6623 68.6686 32.3572 68.3985 29.612C68.1288 26.8673 67.8977 24.5671 67.7049 22.7114C67.512 20.8557 67.3385 19.3866 67.1843 18.3042C67.0688 17.1831 66.9726 16.3518 66.8953 15.8106C66.8184 15.2307 66.7605 14.8441 66.7218 14.6508C66.6836 14.4575 66.6642 14.3415 66.6642 14.3029V14.0709C66.6642 13.6457 66.8373 13.2977 67.1843 13.0271C67.57 12.7178 67.9553 12.5632 68.3409 12.5632C68.919 12.5632 69.5357 12.6598 70.1911 12.8532C70.8847 13.0464 71.3472 13.4524 71.5787 14.0709C71.9257 15.9652 72.1568 17.8789 72.2723 19.8119C72.4265 21.7449 72.5425 23.6779 72.6193 25.6108C72.7349 27.5052 72.8697 29.419 73.0239 31.3518C73.2167 33.285 73.5444 35.1984 74.007 37.0928C74.007 37.1704 74.0263 37.3246 74.0649 37.5567C74.1418 37.7889 74.1998 38.04 74.238 38.3106C74.3153 38.5811 74.3733 38.8326 74.4115 39.0644C74.4502 39.2965 74.4695 39.4512 74.4695 39.5283V39.6446C74.4695 39.6829 74.4888 39.7217 74.5275 39.7605C74.5275 40.2244 74.3153 40.6883 73.8914 41.1522C73.4675 41.6161 73.0239 41.8095 72.5614 41.732C72.4458 41.6932 72.1568 41.6355 71.6943 41.558C71.2704 41.4421 70.9813 41.3452 70.8271 41.2681C70.7112 41.2293 70.557 41.1522 70.3646 41.0359C70.1718 40.8817 69.9789 40.7266 69.7861 40.5724C69.6319 40.4174 69.4971 40.2438 69.3815 40.0504C69.266 39.857 69.266 39.6829 69.3815 39.5283ZM77.1292 37.6726C77.1292 36.0491 77.1679 34.464 77.2448 32.9176C77.3217 31.3712 77.3603 29.786 77.3603 28.1625C77.2448 23.7552 77.2061 19.4446 77.2448 15.2307C77.2834 10.9782 77.0906 6.62892 76.6667 2.18306C76.6667 1.44851 76.8402 0.965248 77.1868 0.733289C77.5338 0.462691 78.0543 0.327393 78.7479 0.327393C79.6348 0.327393 80.3864 0.597991 81.0031 1.13923C81.6581 1.64178 82.0051 2.357 82.0437 3.28483C81.9664 8.77452 82.0244 14.2256 82.2172 19.6379C82.4483 25.0116 82.5638 30.4627 82.5638 35.991V40.4561C82.3328 40.7654 82.0051 41.0747 81.5812 41.384C81.1573 41.6932 80.733 41.8095 80.3091 41.732C79.1912 41.5386 78.382 41.0941 77.8808 40.3984C77.3796 39.6636 77.1292 38.7551 77.1292 37.6726Z"/>
<path d="M98.7813 11.3766C99.9749 12.4295 101.976 12.1047 103.25 10.6511C104.525 9.1975 104.591 7.1656 103.397 6.11271C102.204 5.05983 100.203 5.38467 98.9283 6.83826C97.6536 8.29184 97.5878 10.3237 98.7813 11.3766Z" fill="#F91010"/>
<path d="M111.116 19.2116C112.309 20.2645 114.31 19.9396 115.585 18.486C116.86 17.0325 116.925 15.0006 115.732 13.9477C114.538 12.8948 112.537 13.2196 111.263 14.6732C109.988 16.1268 109.922 18.1587 111.116 19.2116Z" fill="#F91010"/>
<path d="M68.9581 7.02376C70.5496 7.01106 71.8227 5.43358 71.8016 3.50035C71.7805 1.56711 70.4732 0.0102132 68.8817 0.0229096C67.2902 0.035606 66.0171 1.61309 66.0382 3.54632C66.0593 5.47955 67.3666 7.03646 68.9581 7.02376Z"/>
<path d="M91.2991 35.3402C97.2369 36.7835 100.526 27.299 105.895 22.7647C109.571 21.3196 110.394 26.0619 108.156 27.9192C102.332 34.0363 92.9199 45.0932 86.9582 41.3196C82.23 38.3266 86.7765 20.7029 91.2991 16.373C94.3589 12.866 97.6481 15.7526 95.8218 17.8162C93.331 19.2577 87.3932 33.2784 91.2991 35.3402Z" fill="#F91010"/>
</svg>
