<?xml version="1.0" encoding="iso-8859-1"?>
<!-- Generator: Adobe Illustrator 19.0.0, SVG Export Plug-In . SVG Version: 6.00 Build 0)  -->
<svg xmlns="http://www.w3.org/2000/svg" xmlns:xlink="http://www.w3.org/1999/xlink" version="1.1" id="Layer_1" x="0px" y="0px" viewBox="0 0 512 512" style="enable-background:new 0 0 512 512;" xml:space="preserve" width="512" height="512">
<g>
	<path style="fill:#F03C32;" d="M170,10h291.594C483.91,10,502,28.09,502,50.406V90H210L170,10z"/>
	<path style="fill:#F9F7F7;" d="M210,90l-40-80H50.585C28.171,10,10,28.171,10,50.585V362h492V90H210z"/>
	<path style="fill:#8C9FAF;" d="M196,427v-5h120v5c0,19.33,15.67,35,35,35h0c19.33,0,35,15.67,35,35v5H126v-5   c0-19.33,15.67-35,35-35h0C180.33,462,196,446.33,196,427z"/>
	<path style="fill:#76B3E5;" d="M502,362H10v20c0,22.091,17.909,40,40,40h412c22.091,0,40-17.909,40-40V362z"/>
	<g>
		<path d="M113.107,251.775c0-1.289,0.349-2.578,1.05-3.867l35.55-69.324c1.598-3.369,4.35-5.057,8.25-5.057    c1.999,0,4.125,0.727,6.375,2.174c2.25,1.451,3.375,3.226,3.375,5.326c0,0.7-0.251,1.551-0.75,2.549l-28.8,57.601h17.55v-16.505    c0-2.096,0.949-3.693,2.85-4.795c1.898-1.1,4.2-1.65,6.9-1.65c2.7,0,4.999,0.551,6.9,1.65c1.898,1.102,2.85,2.699,2.85,4.795    v16.505h7.05c1.898,0,3.398,0.849,4.5,2.546c1.099,1.696,1.65,3.721,1.65,6.074c0,2.168-0.625,4.123-1.875,5.867    c-1.251,1.743-2.676,2.613-4.275,2.613h-7.05v18.478c0,1.985-0.952,3.551-2.85,4.699c-1.901,1.148-4.2,1.723-6.9,1.723    c-2.602,0-4.875-0.574-6.825-1.723s-2.925-2.714-2.925-4.699v-18.478h-36c-1.901,0-3.476-0.589-4.725-1.768    C113.731,255.333,113.107,253.754,113.107,251.775z"/>
		<path d="M211.357,249.727v-41.85c0-11.899,3.174-20.6,9.525-26.1c6.349-5.499,14.873-8.25,25.575-8.25    c10.699,0,19.25,2.751,25.65,8.25c6.398,5.5,9.6,14.2,9.6,26.1v41.85c0,11.902-3.201,20.602-9.6,26.1    c-6.4,5.502-14.951,8.25-25.65,8.25c-10.702,0-19.226-2.748-25.575-8.25C214.531,270.328,211.357,261.629,211.357,249.727z     M230.857,249.727c0,11.501,5.199,17.25,15.6,17.25c10.5,0,15.75-5.749,15.75-17.25v-41.85c0-11.498-5.25-17.25-15.75-17.25    c-10.401,0-15.6,5.752-15.6,17.25V249.727z"/>
		<path d="M304.206,251.775c0-1.289,0.349-2.578,1.05-3.867l35.551-69.324c1.598-3.369,4.35-5.057,8.25-5.057    c1.998,0,4.125,0.727,6.375,2.174c2.25,1.451,3.375,3.226,3.375,5.326c0,0.7-0.252,1.551-0.75,2.549l-28.801,57.601h17.551    v-16.505c0-2.096,0.949-3.693,2.85-4.795c1.898-1.1,4.199-1.65,6.9-1.65c2.699,0,4.998,0.551,6.899,1.65    c1.898,1.102,2.851,2.699,2.851,4.795v16.505h7.049c1.898,0,3.398,0.849,4.5,2.546c1.1,1.696,1.65,3.721,1.65,6.074    c0,2.168-0.625,4.123-1.875,5.867c-1.252,1.743-2.676,2.613-4.275,2.613h-7.049v18.478c0,1.985-0.952,3.551-2.851,4.699    c-1.901,1.148-4.2,1.723-6.899,1.723c-2.602,0-4.875-0.574-6.826-1.723c-1.949-1.148-2.924-2.714-2.924-4.699v-18.478h-36    c-1.901,0-3.477-0.589-4.726-1.768C304.83,255.333,304.206,253.754,304.206,251.775z"/>
		<path d="M461.594,0H170H50.585C22.692,0,0,22.692,0,50.585V382c0,27.57,22.43,50,50,50h135.497c-2.323,11.397-12.424,20-24.497,20    c-24.813,0-45,20.187-45,45v5c0,5.522,4.477,10,10,10h260c5.522,0,10-4.478,10-10v-5c0-24.813-20.187-45-45-45    c-12.073,0-22.174-8.603-24.497-20H462c27.57,0,50-22.43,50-50V50.406C512,22.612,489.388,0,461.594,0z M20,100h472v252H20V100z     M461.594,20C478.359,20,492,33.641,492,50.406V80H216.18l-30-60H461.594z M50.585,20H163.82l10,20H90c-5.51,0-10,4.49-10,10    s4.49,10,10,10h93.82l10,20H20V50.585C20,33.721,33.721,20,50.585,20z M313.614,452H277.5c-5.51,0-10,4.49-10,10s4.49,10,10,10    c0,0,72.701,0,73.5,0c12.073,0,22.175,8.604,24.498,20H136.502c2.323-11.396,12.425-20,24.498-20    c23.123,0,42.229-17.531,44.724-40h100.552C307.092,439.343,309.69,446.151,313.614,452z M492,382c0,16.542-13.458,30-30,30H316    H196H50c-16.542,0-30-13.458-30-30v-10h472V382z"/>
		<path d="M462,60c5.52,0,10-4.48,10-10c0-5.521-4.48-10-10-10c-5.521,0-10,4.479-10,10C452,55.52,456.479,60,462,60z"/>
		<path d="M422,60c5.52,0,10-4.48,10-10c0-5.521-4.48-10-10-10c-5.521,0-10,4.479-10,10C412,55.52,416.479,60,422,60z"/>
		<path d="M382,60c5.52,0,10-4.48,10-10c0-5.521-4.48-10-10-10c-5.521,0-10,4.479-10,10C372,55.52,376.479,60,382,60z"/>
		<path d="M237.5,472c5.51,0,10-4.49,10-10s-4.49-10-10-10c-5.51,0-10,4.49-10,10S231.99,472,237.5,472z"/>
		<path d="M50,60c5.51,0,10-4.49,10-10s-4.49-10-10-10c-5.51,0-10,4.49-10,10S44.49,60,50,60z"/>
	</g>
</g>















</svg>
