<?xml version="1.0" ?><svg version="1.1" viewBox="0 0 141.332992553711 141.332992553711" xmlns="http://www.w3.org/2000/svg" xmlns:xlink="http://www.w3.org/1999/xlink"><defs><linearGradient id="def0" x1="0.500005" x2="0.500004" y1="1" y2="4.64241E-06"><stop offset="0" stop-color="#5982DF"/><stop offset="1" stop-color="#54AACD"/></linearGradient></defs><g><path d="M17.3333,0C7.76,0,0,7.75999,0,17.3333L0,124C0,133.573,7.76,141.333,17.3333,141.333L124,141.333C133.573,141.333,141.333,133.573,141.333,124L141.333,17.3333C141.333,7.75999,133.573,0,124,0L17.3333,0z" fill="url(#def0)"/><path d="M122.988,38.2136C119.139,39.9216 115,41.0749 110.658,41.5923 115.09,38.9363 118.494,34.7296 120.098,29.7149 115.95,32.1763 111.355,33.9616 106.464,34.9256 102.548,30.7523 96.9683,28.1456 90.7936,28.1456 78.9363,28.1456 69.3256,37.7576 69.3256,49.6136 69.3256,51.2976 69.5163,52.9363 69.8816,54.5069 52.0389,53.6109 36.2189,45.0656 25.6296,32.0749 23.7829,35.2469 22.7243,38.9349 22.7243,42.8683 22.7243,50.3176 26.5149,56.8883 32.2736,60.7389 28.7549,60.6283 25.4443,59.6603 22.5496,58.0523 22.5496,58.1416 22.5483,58.2323 22.5483,58.3243 22.5483,68.7243 29.9483,77.4029 39.7709,79.3736 37.9683,79.8656 36.0709,80.1269 34.1136,80.1269 32.7296,80.1269 31.3856,79.9923 30.0736,79.7416 32.8056,88.2723 40.7363,94.4789 50.1283,94.6523 42.7816,100.41 33.5243,103.843 23.4669,103.843 21.7349,103.843 20.0243,103.742 18.3456,103.543 27.8469,109.634 39.1309,113.187 51.2563,113.187 90.7429,113.187 112.339,80.4749 112.339,52.1029 112.339,51.1723 112.316,50.2469 112.275,49.3256 116.47,46.3003 120.111,42.5189 122.988,38.2136z" fill="#FFFFFF"/></g></svg>